<svg width="24" height="24" viewBox="0 0 24 24" fill="none" xmlns="http://www.w3.org/2000/svg">
<path d="M4.22172 19.778C4.68559 20.2426 5.23669 20.6109 5.84334 20.8618C6.44999 21.1127 7.10023 21.2412 7.75672 21.24C8.41335 21.2412 9.06374 21.1126 9.67054 20.8617C10.2774 20.6108 10.8286 20.2425 11.2927 19.778L14.1207 16.949L12.7067 15.535L9.87872 18.364C9.31519 18.925 8.55239 19.24 7.75722 19.24C6.96205 19.24 6.19925 18.925 5.63572 18.364C5.07422 17.8008 4.75892 17.0379 4.75892 16.2425C4.75892 15.4472 5.07422 14.6843 5.63572 14.121L8.46472 11.293L7.05072 9.87902L4.22172 12.707C3.28552 13.6455 2.75977 14.9169 2.75977 16.2425C2.75977 17.5681 3.28552 18.8396 4.22172 19.778ZM19.7777 11.293C20.7134 10.3543 21.2388 9.08294 21.2388 7.75752C21.2388 6.43211 20.7134 5.16074 19.7777 4.22202C18.8393 3.28583 17.5678 2.76007 16.2422 2.76007C14.9166 2.76007 13.6452 3.28583 12.7067 4.22202L9.87872 7.05102L11.2927 8.46502L14.1207 5.63602C14.6842 5.07501 15.447 4.76005 16.2422 4.76005C17.0374 4.76005 17.8002 5.07501 18.3637 5.63602C18.9252 6.19929 19.2405 6.96219 19.2405 7.75752C19.2405 8.55286 18.9252 9.31575 18.3637 9.87902L15.5347 12.707L16.9487 14.121L19.7777 11.293Z" fill="#A8A8A8"/>
<path d="M8.46383 16.95L7.04883 15.536L15.5358 7.04999L16.9498 8.46499L8.46383 16.95Z" fill="#A8A8A8"/>
</svg>
