<svg width="170" height="15" viewBox="0 0 170 15" fill="none" xmlns="http://www.w3.org/2000/svg">
<path d="M5.25977 -2.24113e-05C6.73977 -2.24113e-05 8.0331 0.293311 9.13977 0.879977C10.2464 1.46664 11.0998 2.29331 11.6998 3.35998C12.3131 4.41331 12.6198 5.63331 12.6198 7.01998C12.6198 8.39331 12.3131 9.61331 11.6998 10.68C11.0998 11.7466 10.2398 12.5733 9.11977 13.16C8.0131 13.7466 6.72643 14.04 5.25977 14.04H-0.000234321V-2.24113e-05H5.25977ZM5.03977 11.08C6.3331 11.08 7.33977 10.7266 8.05977 10.02C8.77977 9.31331 9.13977 8.31331 9.13977 7.01998C9.13977 5.72664 8.77977 4.71998 8.05977 3.99998C7.33977 3.27998 6.3331 2.91998 5.03977 2.91998H3.41977V11.08H5.03977ZM24.271 11.56H19.031L18.191 14.04H14.611L19.691 -2.24113e-05H23.651L28.731 14.04H25.111L24.271 11.56ZM23.391 8.91998L21.651 3.77998L19.931 8.91998H23.391ZM43.3171 -2.24113e-05L38.4571 9.39998V14.04H35.0371V9.39998L30.1771 -2.24113e-05H34.0571L36.7771 5.87998L39.4771 -2.24113e-05H43.3171ZM50.9551 -2.24113e-05C52.4351 -2.24113e-05 53.7284 0.293311 54.8351 0.879977C55.9417 1.46664 56.7951 2.29331 57.3951 3.35998C58.0084 4.41331 58.3151 5.63331 58.3151 7.01998C58.3151 8.39331 58.0084 9.61331 57.3951 10.68C56.7951 11.7466 55.9351 12.5733 54.8151 13.16C53.7084 13.7466 52.4217 14.04 50.9551 14.04H45.6951V-2.24113e-05H50.9551ZM50.7351 11.08C52.0284 11.08 53.0351 10.7266 53.7551 10.02C54.4751 9.31331 54.8351 8.31331 54.8351 7.01998C54.8351 5.72664 54.4751 4.71998 53.7551 3.99998C53.0351 3.27998 52.0284 2.91998 50.7351 2.91998H49.1151V11.08H50.7351ZM69.9663 11.56H64.7263L63.8863 14.04H60.3063L65.3863 -2.24113e-05H69.3463L74.4263 14.04H70.8063L69.9663 11.56ZM69.0863 8.91998L67.3463 3.77998L65.6263 8.91998H69.0863ZM89.0124 -2.24113e-05L84.1524 9.39998V14.04H80.7324V9.39998L75.8724 -2.24113e-05H79.7524L82.4724 5.87998L85.1724 -2.24113e-05H89.0124ZM101.49 -2.24113e-05V2.73998H97.7704V14.04H94.3504V2.73998H90.6304V-2.24113e-05H101.49ZM111.367 14.04L108.447 8.73998H107.627V14.04H104.207V-2.24113e-05H109.947C111.053 -2.24113e-05 111.993 0.193311 112.767 0.579977C113.553 0.966644 114.14 1.49998 114.527 2.17998C114.913 2.84664 115.107 3.59331 115.107 4.41998C115.107 5.35331 114.84 6.18664 114.307 6.91998C113.787 7.65331 113.013 8.17331 111.987 8.47998L115.227 14.04H111.367ZM107.627 6.31998H109.747C110.373 6.31998 110.84 6.16664 111.147 5.85998C111.467 5.55331 111.627 5.11998 111.627 4.55998C111.627 4.02664 111.467 3.60664 111.147 3.29998C110.84 2.99331 110.373 2.83998 109.747 2.83998H107.627V6.31998ZM126.994 11.56H121.754L120.914 14.04H117.334L122.414 -2.24113e-05H126.374L131.454 14.04H127.834L126.994 11.56ZM126.114 8.91998L124.374 3.77998L122.654 8.91998H126.114ZM147.18 -2.24113e-05L142.2 14.04H137.92L132.94 -2.24113e-05H136.58L140.06 10.6L143.56 -2.24113e-05H147.18ZM153.029 2.73998V5.57998H157.609V8.21998H153.029V11.3H158.209V14.04H149.609V-2.24113e-05H158.209V2.73998H153.029ZM164.849 11.4H169.329V14.04H161.429V-2.24113e-05H164.849V11.4Z" fill="#FF553C"/>
</svg>
